<?xml version="1.0" encoding="UTF-8"?>
<svg width="100px" height="100px" viewBox="0 0 100 100" version="1.1" xmlns="http://www.w3.org/2000/svg" xmlns:xlink="http://www.w3.org/1999/xlink">
    <!-- Generator: Sketch 47.1 (45422) - http://www.bohemiancoding.com/sketch -->
    <title>成功</title>
    <desc>Created with Sketch.</desc>
    <defs></defs>
    <g id="-" stroke="none" stroke-width="1" fill="none" fill-rule="evenodd">
        <g id="4.7重置成功" transform="translate(-326.000000, -272.000000)" fill="#FF9900">
            <g id="成功" transform="translate(326.000000, 272.000000)">
                <path d="M50,0 C22.3857625,1.02482125e-14 1.70803542e-15,22.3857625 0,50 C-3.41607085e-15,77.6142375 22.3857625,100 50,100 C77.6142375,100 100,77.6142375 100,50 C100,22.3857625 77.6142375,1.36642834e-14 50,0 Z M50,92.3076923 C26.6341067,92.3076923 7.69230769,73.3658933 7.69230769,50 C7.69230769,26.6341067 26.6341067,7.69230769 50,7.69230769 C73.3658933,7.69230769 92.3076923,26.6341067 92.3076923,50 C92.3076923,73.3658933 73.3658933,92.3076923 50,92.3076923 Z" id="Combined-Shape" fill-rule="nonzero"></path>
                <path d="M68.4669421,35.1299502 L44.0819684,59.6935419 L30.5330579,46.0453866 C29.0463561,44.5477949 26.601728,44.5477949 25.1150263,46.0453866 C23.6283246,47.5429783 23.6283246,50.0055131 25.1150263,51.5031048 L41.369121,67.8762594 C42.8688715,69.3745802 45.2874019,69.3745802 46.7871525,67.8762594 L73.8849737,40.5799489 C75.3716754,39.0823572 75.3716754,36.6198224 73.8849737,35.1222307 C72.398272,33.624639 69.9536439,33.624639 68.4669421,35.1299502 L68.4669421,35.1299502 Z" id="Shape"></path>
            </g>
        </g>
    </g>
</svg>